<?xml version="1.0" standalone="no"?>
<!DOCTYPE svg PUBLIC "-//W3C//DTD SVG 20010904//EN"
 "http://www.w3.org/TR/2001/REC-SVG-20010904/DTD/svg10.dtd">
<svg version="1.0" xmlns="http://www.w3.org/2000/svg"
 width="800.000000pt" height="800.000000pt" viewBox="0 0 800.000000 800.000000"
 preserveAspectRatio="xMidYMid meet">
<metadata>
Created by potrace 1.14, written by Peter Selinger 2001-2017
</metadata>
<g transform="translate(0.000000,800.000000) scale(0.100000,-0.100000)"
fill="#000000" stroke="none">
<path d="M3907 7518 c-43 -80 -178 -337 -307 -583 -35 -66 -77 -147 -95 -180
-44 -82 -99 -185 -217 -410 -55 -104 -115 -217 -133 -250 -18 -33 -61 -114
-95 -180 -35 -66 -76 -145 -92 -175 -16 -30 -68 -129 -116 -218 l-86 -164
-101 104 c-118 121 -189 208 -275 336 -223 337 -359 746 -379 1142 l-6 125
-69 3 c-38 2 -72 -1 -76 -5 -11 -12 6 -267 25 -380 41 -241 110 -461 214 -678
122 -254 262 -453 463 -659 l127 -131 -76 -145 c-42 -80 -94 -179 -116 -220
-22 -41 -81 -154 -132 -250 -50 -96 -174 -330 -275 -520 -100 -190 -210 -397
-243 -460 -33 -63 -134 -254 -225 -425 -90 -170 -191 -362 -225 -425 -33 -63
-72 -137 -87 -165 -51 -93 -124 -240 -122 -245 3 -7 5512 -8 5516 -1 1 3 -28
65 -66 136 -38 72 -110 209 -160 305 -50 96 -126 240 -168 320 -43 80 -111
210 -152 290 -41 80 -118 226 -170 325 -52 99 -128 243 -168 320 -40 77 -92
176 -115 220 -128 241 -176 337 -172 341 2 2 135 3 295 2 l291 -3 -39 -50
c-45 -56 -49 -71 -21 -80 10 -3 26 -14 36 -25 26 -29 47 -25 74 15 41 61 134
145 199 182 34 19 62 36 62 38 0 2 -26 17 -57 35 -64 37 -146 110 -200 182
-20 26 -40 48 -44 48 -3 0 -27 -16 -53 -36 l-46 -35 45 -60 46 -59 -338 0
-339 0 -31 63 c-41 79 -176 337 -308 587 -56 107 -137 263 -180 345 -43 83
-92 177 -110 210 -18 33 -63 119 -100 190 -37 72 -114 218 -170 325 -323 615
-456 869 -515 982 -36 70 -68 128 -72 128 -4 0 -27 -37 -51 -82z m75 -298 c25
-45 77 -143 203 -385 37 -71 85 -162 106 -202 24 -43 37 -79 33 -90 -4 -11 -3
-14 3 -6 13 18 245 -428 236 -455 -3 -12 -2 -13 4 -5 6 8 31 -31 77 -120 38
-73 73 -138 78 -144 6 -7 8 -20 4 -28 -3 -9 -2 -13 4 -10 5 3 18 -11 28 -32
10 -21 29 -55 41 -77 12 -21 20 -45 17 -53 -3 -8 -2 -12 3 -8 5 3 35 -45 67
-107 31 -62 70 -138 87 -168 122 -226 197 -379 191 -396 -4 -15 -4 -16 4 -5 8
11 20 -5 51 -68 l42 -82 -638 3 -638 3 -130 29 c-185 40 -448 128 -414 138 8
3 4 3 -8 1 -30 -5 -197 78 -180 90 8 6 7 7 -5 3 -27 -8 -218 103 -323 188
l-30 25 64 123 c106 205 231 442 241 458 5 8 21 39 36 68 20 39 29 50 36 40 7
-9 8 -8 4 6 -4 12 19 66 65 155 78 149 94 172 84 126 -5 -26 -4 -27 4 -7 6 12
8 29 5 37 -4 8 -2 21 4 28 5 6 32 55 60 107 69 133 158 302 202 385 44 83 138
262 170 324 17 34 24 41 32 30 8 -11 9 -10 4 4 -8 24 11 70 26 61 6 -4 8 -3 4
4 -5 9 13 67 20 60 1 -2 13 -23 26 -48z m-940 -2257 c155 -94 333 -175 498
-229 l83 -27 -94 -23 c-461 -117 -947 -379 -1281 -691 -27 -24 -48 -41 -48
-38 0 4 18 40 40 81 99 184 179 333 265 499 37 72 75 144 85 160 10 17 49 91
88 165 38 74 84 163 102 196 l33 61 72 -52 c40 -29 111 -75 157 -102z m2377
-478 c78 -151 185 -356 246 -470 23 -44 69 -132 102 -195 166 -318 199 -380
231 -440 19 -36 71 -135 115 -220 44 -85 114 -220 157 -300 42 -80 100 -191
129 -247 l52 -103 -2506 0 c-1378 0 -2505 4 -2505 8 0 4 4 12 9 18 4 5 45 81
91 169 45 88 93 178 105 200 13 22 47 87 77 145 127 243 154 288 241 402 459
608 1128 1015 1860 1133 84 13 168 26 187 28 19 2 329 3 688 3 l654 -1 67
-130z"/>
<path d="M3950 7228 c0 -9 5 -20 10 -23 13 -8 13 5 0 25 -8 13 -10 13 -10 -2z"/>
<path d="M3867 7073 c-4 -3 -7 -11 -7 -17 0 -6 5 -5 12 2 6 6 9 14 7 17 -3 3
-9 2 -12 -2z"/>
<path d="M3815 6960 c3 -5 8 -10 11 -10 2 0 4 5 4 10 0 6 -5 10 -11 10 -5 0
-7 -4 -4 -10z"/>
<path d="M3786 6923 c-6 -14 -5 -15 5 -6 7 7 10 15 7 18 -3 3 -9 -2 -12 -12z"/>
<path d="M4200 6751 c0 -5 5 -13 10 -16 6 -3 10 -2 10 4 0 5 -4 13 -10 16 -5
3 -10 2 -10 -4z"/>
<path d="M3657 6673 c-4 -3 -7 -11 -7 -17 0 -6 5 -5 12 2 6 6 9 14 7 17 -3 3
-9 2 -12 -2z"/>
<path d="M4270 6621 c0 -5 7 -15 17 -22 15 -13 15 -12 4 9 -12 23 -21 28 -21
13z"/>
<path d="M4260 6591 c0 -5 7 -15 17 -22 15 -13 15 -12 4 9 -12 23 -21 28 -21
13z"/>
<path d="M4330 6514 c0 -13 18 -39 24 -34 2 3 -2 14 -10 24 -8 11 -14 16 -14
10z"/>
<path d="M3549 6464 c-5 -15 -7 -29 -5 -32 5 -4 10 6 22 46 7 23 -7 12 -17
-14z"/>
<path d="M4410 6354 c0 -13 18 -39 24 -34 2 3 -2 14 -10 24 -8 11 -14 16 -14
10z"/>
<path d="M3400 6189 c0 -5 5 -7 10 -4 6 3 10 8 10 11 0 2 -4 4 -10 4 -5 0 -10
-5 -10 -11z"/>
<path d="M4521 6144 c0 -11 3 -14 6 -6 3 7 2 16 -1 19 -3 4 -6 -2 -5 -13z"/>
<path d="M4571 6034 c0 -11 3 -14 6 -6 3 7 2 16 -1 19 -3 4 -6 -2 -5 -13z"/>
<path d="M4605 5960 c3 -5 8 -10 11 -10 2 0 4 5 4 10 0 6 -5 10 -11 10 -5 0
-7 -4 -4 -10z"/>
<path d="M3230 5858 c-12 -22 -12 -22 6 -6 10 10 15 20 12 24 -4 3 -12 -5 -18
-18z"/>
<path d="M3187 5781 c-4 -17 -3 -21 5 -13 5 5 8 16 6 23 -3 8 -7 3 -11 -10z"/>
<path d="M4730 5750 c1 -8 7 -24 15 -34 19 -25 19 -16 0 20 -8 16 -15 22 -15
14z"/>
<path d="M3146 5705 c-9 -26 -7 -32 5 -12 6 10 9 21 6 23 -2 3 -7 -2 -11 -11z"/>
<path d="M4726 5697 c3 -10 9 -15 12 -12 3 3 0 11 -7 18 -10 9 -11 8 -5 -6z"/>
<path d="M3111 5634 c0 -11 3 -14 6 -6 3 7 2 16 -1 19 -3 4 -6 -2 -5 -13z"/>
<path d="M3070 5570 c-6 -11 -8 -20 -6 -20 3 0 10 9 16 20 6 11 8 20 6 20 -3
0 -10 -9 -16 -20z"/>
<path d="M4811 5554 c0 -11 3 -14 6 -6 3 7 2 16 -1 19 -3 4 -6 -2 -5 -13z"/>
<path d="M3006 5440 c-9 -22 -16 -46 -16 -53 1 -6 10 10 20 37 11 28 18 51 16
53 -2 2 -11 -14 -20 -37z"/>
<path d="M3015 5370 c-3 -5 -1 -10 4 -10 6 0 11 5 11 10 0 6 -2 10 -4 10 -3 0
-8 -4 -11 -10z"/>
<path d="M2951 5343 c-1 -6 -4 -20 -7 -30 -5 -17 -5 -17 6 0 6 10 9 23 6 30
-3 9 -5 9 -5 0z"/>
<path d="M2910 5266 c0 -2 12 -12 28 -21 l27 -18 -19 21 c-17 20 -36 29 -36
18z"/>
<path d="M4990 5230 c0 -5 5 -10 10 -10 6 0 10 5 10 10 0 6 -4 10 -10 10 -5 0
-10 -4 -10 -10z"/>
<path d="M3084 5175 c8 -8 18 -15 22 -15 3 0 1 7 -6 15 -7 8 -17 15 -22 15 -5
0 -3 -7 6 -15z"/>
<path d="M3040 5170 c35 -24 54 -31 30 -11 -14 11 -29 21 -35 21 -5 0 -3 -5 5
-10z"/>
<path d="M3160 5095 c14 -7 27 -11 30 -9 6 7 -22 24 -40 23 -9 0 -5 -6 10 -14z"/>
<path d="M5080 5071 c0 -5 5 -13 10 -16 6 -3 10 -2 10 4 0 5 -4 13 -10 16 -5
3 -10 2 -10 -4z"/>
<path d="M3277 5029 c7 -7 15 -10 18 -7 3 3 -2 9 -12 12 -14 6 -15 5 -6 -5z"/>
<path d="M3315 5010 c3 -5 11 -10 16 -10 6 0 7 5 4 10 -3 6 -11 10 -16 10 -6
0 -7 -4 -4 -10z"/>
<path d="M3485 4951 c-17 -7 -16 -9 9 -15 16 -4 31 -5 34 -1 3 3 -3 5 -14 5
-16 0 -17 2 -4 10 18 11 3 12 -25 1z"/>
<path d="M3548 4918 c6 -6 18 -8 28 -6 14 3 12 5 -9 10 -19 3 -25 2 -19 -4z"/>
<path d="M5170 4906 c0 -2 7 -9 15 -16 13 -11 14 -10 9 4 -5 14 -24 23 -24 12z"/>
<path d="M3808 4863 c6 -2 18 -2 25 0 6 3 1 5 -13 5 -14 0 -19 -2 -12 -5z"/>
<path d="M3740 4856 c0 -2 7 -6 15 -10 8 -3 15 -1 15 4 0 6 -7 10 -15 10 -8 0
-15 -2 -15 -4z"/>
<path d="M3833 4833 c9 -2 23 -2 30 0 6 3 -1 5 -18 5 -16 0 -22 -2 -12 -5z"/>
<path d="M5210 4834 c0 -13 18 -39 24 -34 2 3 -2 14 -10 24 -8 11 -14 16 -14
10z"/>
<path d="M4840 2183 c-27 -11 -30 -26 -30 -169 l0 -142 -76 -4 c-52 -2 -78 -8
-84 -18 -5 -8 -10 -43 -10 -77 0 -76 9 -83 104 -83 l66 0 0 -470 c0 -311 4
-487 11 -522 49 -226 235 -334 517 -299 106 13 234 45 270 67 27 18 27 29 1
99 -25 66 -31 67 -174 29 -214 -57 -357 -27 -415 86 -36 71 -40 131 -40 575
l0 435 211 0 c126 0 218 4 230 10 16 9 19 22 19 73 0 34 -5 69 -10 77 -8 12
-47 16 -230 18 l-220 3 0 148 c0 101 -4 151 -12 159 -12 12 -100 15 -128 5z"/>
<path d="M1566 1915 c-140 -36 -274 -136 -325 -244 l-26 -56 -3 -595 c-3 -675
-10 -620 83 -620 92 0 84 -50 87 590 l3 565 27 47 c54 91 155 148 280 156 144
9 259 -39 328 -138 l25 -35 3 -580 c2 -529 4 -581 19 -592 18 -14 121 -17 140
-5 9 6 13 143 15 567 l3 560 23 47 c29 59 88 113 161 147 48 22 69 26 151 26
81 0 103 -4 150 -26 71 -33 123 -79 158 -138 l27 -46 2 -564 c2 -439 6 -567
15 -573 22 -14 134 -9 147 6 9 10 11 169 9 602 l-3 589 -34 67 c-141 282 -592
348 -847 124 l-50 -44 -29 30 c-44 46 -123 94 -195 119 -84 28 -257 35 -344
14z"/>
<path d="M3764 1865 c-203 -44 -334 -203 -379 -462 -18 -102 -21 -360 -5 -479
35 -256 166 -426 379 -488 69 -20 218 -21 314 -1 83 17 224 69 249 92 16 14
16 18 -3 67 -35 89 -40 91 -176 43 -188 -65 -322 -63 -419 5 -52 37 -110 114
-134 176 -26 69 -50 213 -50 305 l0 77 405 0 c389 0 405 1 415 19 5 11 10 69
10 129 0 124 -23 233 -67 313 -90 166 -317 252 -539 204z m263 -185 c82 -36
134 -99 159 -193 8 -28 14 -67 14 -84 l0 -33 -325 0 c-371 0 -340 -10 -302 97
24 67 90 155 145 193 76 53 215 62 309 20z"/>
<path d="M6140 1860 c-131 -27 -198 -49 -204 -67 -4 -8 2 -40 11 -70 22 -69
45 -81 112 -58 26 8 82 22 125 30 282 54 402 -41 388 -307 l-3 -58 -112 0
c-222 -1 -408 -48 -541 -139 -55 -37 -138 -126 -161 -171 -96 -190 -7 -438
194 -539 98 -50 170 -64 286 -58 108 6 153 18 259 66 38 17 72 31 75 31 3 0 7
-21 8 -46 2 -63 14 -74 84 -74 98 0 91 -51 87 609 -4 572 -4 576 -27 630 -41
99 -91 155 -176 195 -104 49 -252 59 -405 26z m424 -708 c3 -5 6 -98 7 -208
l1 -199 -33 -27 c-46 -39 -154 -93 -223 -113 -88 -26 -208 -17 -268 18 -136
80 -188 187 -140 289 55 118 216 214 397 237 92 11 252 13 259 3z"/>
</g>
</svg>
